HIERARCHY
ROOT root
{
	OFFSET 0.000000 0.000000 0.000000
	CHANNELS 6 Xposition Yposition Zposition Zrotation Yrotation Xrotation
	JOINT lhip
	{
		OFFSET 0.058581 -0.082280 -0.017664
		CHANNELS 3 Zrotation Yrotation Xrotation
		JOINT lknee
		{
			OFFSET 0.043451 -0.386469 0.008037
			CHANNELS 3 Zrotation Yrotation Xrotation
			JOINT lankle
			{
				OFFSET -0.014790 -0.426874 -0.037428
				CHANNELS 3 Zrotation Yrotation Xrotation
				JOINT ltoe
				{
					OFFSET 0.041054 -0.060286 0.122042
					CHANNELS 3 Zrotation Yrotation Xrotation
					End Site
					{
						OFFSET 0.000000 0.000000 0.000000
					}
				}
			}
		}
	}
	JOINT rhip
	{
		OFFSET -0.060310 -0.090513 -0.013543
		CHANNELS 3 Zrotation Yrotation Xrotation
		JOINT rknee
		{
			OFFSET -0.043257 -0.383688 -0.004843
			CHANNELS 3 Zrotation Yrotation Xrotation
			JOINT rankle
			{
				OFFSET 0.019056 -0.420046 -0.034562
				CHANNELS 3 Zrotation Yrotation Xrotation
				JOINT rtoe
				{
					OFFSET -0.034840 -0.062106 0.130323
					CHANNELS 3 Zrotation Yrotation Xrotation
					End Site
					{
						OFFSET 0.000000 0.000000 0.000000
					}
				}
			}
		}
	}
	JOINT lowerback
	{
		OFFSET 0.004439 0.124404 -0.038385
		CHANNELS 3 Zrotation Yrotation Xrotation
		JOINT upperback
		{
			OFFSET 0.004488 0.137956 0.026820
			CHANNELS 3 Zrotation Yrotation Xrotation
			JOINT chest
			{
				OFFSET -0.002265 0.056032 0.002855
				CHANNELS 3 Zrotation Yrotation Xrotation
				JOINT lowerneck
				{
					OFFSET -0.013390 0.211636 -0.033468
					CHANNELS 3 Zrotation Yrotation Xrotation
					JOINT upperneck
					{
						OFFSET 0.010113 0.088937 0.050410
						CHANNELS 3 Zrotation Yrotation Xrotation
						End Site
						{
							OFFSET 0.000000 0.000000 0.000000
						}
					}
				}
				JOINT lclavicle
				{
					OFFSET 0.071702 0.114000 -0.018898
					CHANNELS 3 Zrotation Yrotation Xrotation
					JOINT lshoulder
					{
						OFFSET 0.122921 0.045205 -0.019046
						CHANNELS 3 Zrotation Yrotation Xrotation
						JOINT lelbow
						{
							OFFSET 0.255332 -0.015649 -0.022946
							CHANNELS 3 Zrotation Yrotation Xrotation
							JOINT lwrist
							{
								OFFSET 0.265709 0.012698 -0.007375
								CHANNELS 3 Zrotation Yrotation Xrotation
								End Site
								{
									OFFSET 0.000000 0.000000 0.000000
								}
							}
						}
					}
				}
				JOINT rclavicle
				{
					OFFSET -0.082954 0.112472 -0.023707
					CHANNELS 3 Zrotation Yrotation Xrotation
					JOINT rshoulder
					{
						OFFSET -0.113228 0.046853 -0.008472
						CHANNELS 3 Zrotation Yrotation Xrotation
						JOINT relbow
						{
							OFFSET -0.260127 -0.014369 -0.031269
							CHANNELS 3 Zrotation Yrotation Xrotation
							JOINT rwrist
							{
								OFFSET -0.269108 0.006794 -0.006027
								CHANNELS 3 Zrotation Yrotation Xrotation
								End Site
								{
									OFFSET 0.000000 0.000000 0.000000
								}
							}
						}
					}
				}
			}
		}
	}
}
MOTION
Frames: 14
Frame Time: 0.033333
-0.867696 0.300910 1.017835 95.060119 0.009192 87.933143 0.265370 -1.282604 7.870415 -7.057530 -11.589694 40.431012 1.923384 8.637343 9.790892 0.000000 -0.000000 0.000000 0.527537 0.497711 -16.190930 2.077472 -7.387425 17.694126 -1.179401 -8.684774 -2.574996 0.000000 -0.000000 0.000000 0.112265 -3.098445 11.110065 2.752881 -1.500076 1.271744 0.342587 -3.311799 3.286710 1.630436 5.769865 -3.507789 -1.485970 1.699361 8.990896 -26.152399 4.756142 2.043441 -56.134574 -9.445337 10.843676 5.958319 -23.973523 11.397013 -10.029313 -0.678687 -3.035945 32.753133 -3.688097 0.588223 55.073104 5.486690 8.871816 -15.622904 5.569512 -16.593597 7.019898 -1.199234 -10.543784 
-0.838212 0.296759 1.019995 94.863217 -0.290011 86.959174 1.101884 -0.907539 4.949303 -8.759077 -8.888321 45.310085 -0.650257 6.709992 6.372890 0.000000 -0.000000 0.000000 1.066637 -0.162231 -13.209133 1.763002 -6.597938 17.965070 -1.430474 -8.314816 -4.431637 0.000000 -0.000000 0.000000 -0.482115 -1.982958 11.429391 2.688858 -1.565482 1.081731 0.320005 -3.003123 3.265245 1.797342 5.616964 -3.214993 -1.317389 1.161777 9.524744 -26.550104 4.030341 1.707946 -55.268119 -10.214151 10.540262 6.235902 -25.860655 11.086325 -9.258247 -1.087828 -2.762404 33.039815 -2.891750 0.393036 55.191751 6.016679 8.931377 -15.569003 6.239830 -15.796872 7.074362 -1.066552 -10.116813 
-0.810613 0.293303 1.021563 93.919358 -0.887177 86.118704 1.419495 -0.646541 2.105170 -7.735989 -5.158467 47.397069 0.994867 7.968205 2.165848 0.000000 -0.000000 0.000000 1.145591 -0.804854 -10.681538 1.505494 -5.726456 18.451985 -1.230642 -7.879439 -6.253736 0.000000 -0.000000 0.000000 -1.411094 -0.633590 11.743708 2.400312 -1.154059 0.415838 0.318304 -2.385824 3.374644 2.045471 5.627784 -2.386098 -1.070423 0.921517 10.756981 -26.555209 3.776368 1.518531 -55.123488 -11.269043 10.096021 7.167141 -28.227254 9.630667 -8.123863 -1.305623 -3.361529 33.265059 -2.084088 0.509411 55.642334 6.962237 9.148166 -16.019707 6.094391 -15.808546 6.737729 -1.032142 -9.675624 
-0.783755 0.290810 1.022467 92.568414 -1.563577 85.457794 1.300702 -0.795316 -0.582522 -7.356425 -2.467190 47.391614 2.059869 8.612260 -1.805969 0.000000 -0.000000 0.000000 0.967351 -1.108305 -8.206885 1.405360 -4.500679 18.611882 -1.160061 -7.293969 -7.696591 0.000000 -0.000000 0.000000 -2.224281 0.548913 11.705797 2.008186 -0.705728 -0.170357 0.252659 -1.608400 3.498660 2.347189 5.542675 -1.972137 -0.965647 0.555902 11.716915 -26.529606 3.700670 1.225791 -55.352805 -12.088309 9.825028 8.489492 -30.864892 7.376090 -6.752957 -2.050047 -5.157482 33.268184 -1.338051 0.833873 56.084487 7.862282 9.484824 -16.669601 6.461982 -16.006340 6.219929 -0.827683 -9.816732 
-0.758392 0.289522 1.022679 91.491524 -2.124593 84.740721 1.004153 -1.686703 -2.899662 -7.263576 -0.560145 45.466032 2.469645 8.683948 -4.902075 0.000000 -0.000000 0.000000 0.764582 -1.272992 -5.636349 1.259218 -3.237307 18.676735 -1.037223 -7.004816 -8.923584 0.000000 -0.000000 0.000000 -2.541006 1.450830 12.017358 1.589611 -0.565803 -0.687796 0.026082 -1.069578 3.537748 2.625053 5.128141 -1.615603 -0.915700 0.043437 12.545215 -26.626900 3.731938 1.138841 -55.533946 -12.785000 9.603214 9.883311 -33.972658 4.797262 -5.434875 -2.773339 -7.904855 32.907593 -0.659110 0.783334 56.496966 8.695871 9.998082 -17.119380 7.224038 -15.842879 5.605082 -0.459758 -9.976075 
-0.734372 0.288577 1.022302 90.469590 -2.635795 84.280243 0.580852 -2.731155 -5.438514 -7.530587 0.503181 42.159760 2.679364 9.120467 -7.758645 0.000000 -0.000000 0.000000 0.506468 -1.494807 -3.553027 1.179358 -1.898834 18.928792 -0.568577 -7.054838 -10.303097 0.000000 -0.000000 0.000000 -2.773754 2.191752 11.912057 1.266581 -0.606985 -1.005462 -0.265601 -0.773687 3.772537 2.784666 5.388236 -1.817441 -1.101686 -0.130840 13.403709 -26.784702 3.829052 0.942221 -55.582959 -13.359961 9.695359 11.145668 -37.024252 2.598564 -4.312209 -3.180987 -9.973389 32.729260 0.007874 0.725732 56.354405 9.975013 10.500920 -17.428512 7.963439 -16.006012 5.395542 -0.188744 -9.812313 
-0.711364 0.288125 1.021415 89.557370 -3.008021 83.713980 0.082435 -3.364929 -7.489009 -6.957262 1.039892 37.683484 2.821994 9.173940 -9.168711 0.000000 -0.000000 0.000000 0.336649 -1.708971 -1.320885 0.953718 -0.851623 18.922572 -0.390941 -6.888285 -11.535574 0.000000 -0.000000 0.000000 -2.775231 2.811660 12.229421 0.912840 -0.768471 -1.218904 -0.520842 -0.415081 3.691819 2.789450 5.889038 -1.434356 -1.093352 0.110895 13.686642 -26.529025 3.696424 0.887854 -55.875646 -13.628819 10.038320 11.934631 -39.991845 1.820148 -3.704003 -3.192134 -10.970013 32.325023 0.483539 0.487499 56.341324 10.776908 10.695432 -17.958424 9.444609 -16.220903 5.460765 0.276825 -9.792217 
-0.689942 0.288190 1.019968 88.875067 -3.220226 83.449379 -0.480467 -3.973469 -9.815384 -5.704917 1.344516 32.981059 2.966868 9.355697 -9.345943 0.000000 -0.000000 0.000000 0.165871 -1.786258 0.501816 0.851612 -0.033588 18.866235 -0.217970 -6.768422 -12.579970 0.000000 -0.000000 0.000000 -2.629249 3.253388 12.438819 0.641264 -0.966426 -1.471247 -0.693312 -0.248034 3.695988 2.704559 6.521194 -1.418092 -1.361386 0.287251 14.166716 -26.410314 3.316325 0.694269 -55.979266 -13.799149 10.568086 12.431728 -42.164908 1.782510 -3.658903 -3.583485 -10.739904 31.926825 1.056418 0.374399 56.168739 11.825406 10.812409 -18.479370 10.656147 -16.881203 5.429322 1.069858 -9.843169 
-0.668068 0.287833 1.018186 87.909440 -3.292549 83.291252 -0.727480 -4.374266 -11.755072 -4.858222 1.680336 27.434383 3.157596 9.817248 -9.181066 0.000000 -0.000000 0.000000 0.076101 -2.017232 2.341263 0.782444 0.935439 18.696950 -0.216023 -6.523640 -13.672476 0.000000 -0.000000 0.000000 -2.638976 3.834011 12.222219 0.610506 -1.191354 -1.373108 -0.657642 -0.029960 3.690160 2.775109 6.779607 -1.280155 -1.621679 -0.046818 14.501552 -26.262318 2.967781 0.693882 -56.108850 -13.799754 11.102517 12.290740 -43.345271 2.251240 -3.386633 -3.697971 -10.414051 31.717125 1.691867 0.311814 55.729951 12.840045 10.796704 -19.097827 11.587960 -17.332712 5.529484 1.460018 -9.732591 
-0.648085 0.287489 1.015917 86.860888 -3.264527 83.559460 -0.633332 -4.934789 -13.684051 -4.500406 1.776391 21.309079 2.455554 9.457731 -8.113152 0.000000 -0.000000 0.000000 0.076087 -2.034248 3.195563 0.807548 1.792701 19.190342 -0.125783 -6.363474 -14.635693 0.000000 -0.000000 0.000000 -2.740513 4.403713 12.049857 0.665126 -1.200203 -1.462884 -0.588336 0.059570 3.632283 3.311025 6.910120 -1.760129 -1.672608 -0.902012 14.831349 -26.074221 2.566602 0.511495 -56.310647 -13.534527 11.930569 12.350380 -44.028409 2.858838 -3.587009 -4.039646 -9.703744 31.555346 2.203254 0.109729 55.509206 13.981572 10.792415 -19.814657 12.267389 -18.093781 5.453376 2.096276 -9.713288 
-0.626341 0.287143 1.013530 85.808993 -3.275604 83.787272 -0.680829 -5.094269 -14.579620 -4.271967 0.773222 14.238686 1.693038 8.533609 -6.617946 0.000000 -0.000000 0.000000 -0.024638 -2.177407 4.270174 0.641428 2.563656 19.644135 0.225778 -5.858889 -15.721210 0.000000 -0.000000 0.000000 -2.931710 4.893068 11.659039 0.743324 -1.287609 -1.257862 -0.479307 0.200050 3.377814 3.538102 7.760132 -1.661354 -2.073837 -1.208894 15.108691 -26.104556 2.519061 0.317225 -56.176869 -13.340985 12.401340 11.681503 -43.883504 3.713462 -3.277307 -4.591374 -8.073755 31.436011 2.609465 -0.078290 55.341813 14.932520 10.865351 -20.376186 13.043836 -18.659038 5.454546 2.738236 -9.626286 
-0.605173 0.287560 1.010573 84.617730 -3.160939 84.386424 -0.699587 -4.770911 -15.755969 -3.591305 -0.034488 7.485990 0.664366 8.038039 -6.556394 0.000000 -0.000000 0.000000 -0.196065 -2.339317 4.900485 0.703989 3.314847 20.044148 0.591870 -5.370365 -16.632316 0.000000 -0.000000 0.000000 -2.853501 5.051749 11.516345 0.600099 -1.214678 -1.672194 -0.508405 0.473193 3.028304 3.650357 8.820145 -1.613886 -2.314202 -0.954909 15.405691 -25.905514 2.643280 0.245139 -56.316613 -12.441583 12.803917 11.059980 -43.349475 4.477162 -3.569469 -4.359589 -7.830180 31.388113 2.953739 -0.086764 55.287111 16.057563 10.904876 -20.758514 13.382824 -19.092141 5.447818 3.266324 -9.606409 
-0.583110 0.288150 1.007082 83.618726 -2.863567 84.994146 -0.562392 -4.215117 -16.698587 -2.854630 -0.040678 1.541523 -1.972500 6.612256 -5.038271 0.000000 -0.000000 0.000000 -0.172357 -2.266671 5.819850 0.643279 3.786278 19.897972 0.898682 -4.994442 -17.072559 0.000000 -0.000000 0.000000 -2.589048 5.209223 10.934914 0.563281 -1.203665 -1.479155 -0.567536 0.602006 2.879533 3.938870 9.267218 -1.808135 -2.409468 -1.373022 15.233160 -26.155159 2.635071 0.289263 -56.248249 -11.883797 12.868092 10.855736 -42.008708 4.345507 -3.905589 -4.294041 -7.021067 31.277204 3.295828 -0.272964 55.280637 17.274146 10.911349 -21.137999 14.049908 -19.536868 5.444522 3.606488 -9.301528 
-0.560891 0.289093 1.003586 82.510873 -2.566298 85.755443 -0.482811 -3.626927 -18.024360 -2.380510 0.981079 -1.649961 -1.051698 6.499131 -5.683025 0.000000 -0.000000 0.000000 -0.397883 -2.507382 6.345262 0.789105 4.368805 20.166809 1.174250 -4.475024 -17.524211 0.000000 -0.000000 0.000000 -2.334992 5.519833 10.871251 0.484323 -1.036611 -2.006910 -0.624890 0.798536 2.578649 4.165473 9.327636 -1.793776 -2.684260 -1.500417 15.248979 -26.457679 2.903719 0.205359 -56.246552 -11.176710 12.558457 10.075560 -39.999746 4.933658 -4.369344 -4.040212 -5.880599 31.055943 3.414684 -0.418949 55.477900 18.020962 10.941357 -21.566903 14.582194 -19.889103 5.458257 3.835833 -9.145547 
